<svg xmlns="http://www.w3.org/2000/svg" viewBox="0 0 260.28 337.05"><defs><style>.cls-1{fill:#987cb9;}.cls-12,.cls-2,.cls-8{fill:#231f20;}.cls-11,.cls-3,.cls-7{fill:#4a3b60;}.cls-3{opacity:0.47;}.cls-4{fill:#b198c8;}.cls-5{fill:#8767aa;}.cls-11,.cls-6{opacity:0.4;}.cls-13,.cls-8{stroke:#231f20;stroke-miterlimit:10;}.cls-8{stroke-width:1.5px;}.cls-9{fill:#4b3c60;}.cls-10{fill:#8766a9;}.cls-12{font-size:25.88px;font-family:SignericaFat, Signerica Fat;}.cls-13{fill:none;stroke-width:1.6px;}.cls-14{opacity:0.66;}.cls-15{fill:#4b3d60;opacity:0.14;}</style></defs><title>Asset 1</title><g id="Layer_2" data-name="Layer 2"><g id="Layer_1-2" data-name="Layer 1"><path class="cls-1" d="M114.41,113.85c-45.82,3.85-83.3,38.43-90.63,83.24S41,285.56,80.93,303.65c39.49,17.88,90,6.58,118.63-26s33.52-83.59,12.2-121.34c-5.54-9.81-12.72-18.81-21.74-25.56-9.69-7.25-18.53-10.3-25.08-12.47-36.51-12.09-68.87-1-77.62,2.08l-.56.2"/><path class="cls-2" d="M114.41,112c-42.84,3.9-80.13,34.39-90.74,76.42-11,43.61,9.42,90.8,48.53,112.92,38.46,21.75,89.41,14.46,121.7-15.19,33.84-31.08,42.13-84.65,22.22-125.52-5.91-12.14-14.29-23.35-25.16-31.46-11.19-8.36-24.9-13.39-38.52-16.08-22.1-4.37-45.08-1.89-66.18,5.7-2.26.81-1.28,4.44,1,3.62,38.76-14,90.14-10.48,116.46,24.94s25.45,87.75-.69,123.08c-25.31,34.21-73.59,48.4-113.65,34.59C48,290.73,21,247.92,24.73,204.54c4-47.07,43-84.57,89.68-88.81,2.39-.22,2.41-4,0-3.75Z"/><path class="cls-3" d="M223.79,193.4a27,27,0,0,0-.64-4.18q-.61-3.58-1.42-7.14a2.61,2.61,0,0,0-.48-1,2.37,2.37,0,0,0,.22-1.2,23.17,23.17,0,0,0-4.09-12.17h0c-.05-.51-.09-1-.15-1.53a2.69,2.69,0,0,0-2.78-2.39,25.19,25.19,0,0,0-3.41-6.19,49.54,49.54,0,0,0-4.22-8.1,2.44,2.44,0,0,0-1.58-1.08,47.06,47.06,0,0,0-8.35-9.71,70.17,70.17,0,0,0-9.36-7.84c-.8-.77-1.6-1.53-2.43-2.27a2.43,2.43,0,0,0-2.61-.54l-.3-.17a45.07,45.07,0,0,0-6.49-4c-.11-.06-.23-.1-.34-.15a2.5,2.5,0,0,0-.74-.66l-7.07-4a2.36,2.36,0,0,0-3.09.55,54.75,54.75,0,0,0-7.8-2.79l-2.86-2.12a2,2,0,0,0-2.38-.14c-.45-.41-.9-.83-1.36-1.23-2.4-2.13-6,1.4-3.53,3.53a95.3,95.3,0,0,1,32.19,71.53c-.12,15.67-4.69,30.83-10,45.45a242.58,242.58,0,0,1-17.2,38.29c-7.85,13.75-17.58,26.24-29.73,36.44-2.47,2.07,1.09,5.6,3.54,3.54l.8-.71a2,2,0,0,0,3,.45l.39-.3a2.23,2.23,0,0,0,2.13.41c.55-.19,1.09-.41,1.63-.64,3.11.75,7.3-.07,9.5-.69a2.34,2.34,0,0,0,1.62-1.61,3.43,3.43,0,0,0,.56,0l.37,0,.2,0a46.71,46.71,0,0,0,15-4.45,65.88,65.88,0,0,0,18-9.92c9.62-5.71,18.36-12.58,24.94-21.74a2.09,2.09,0,0,0,.43-1.61,94.9,94.9,0,0,0,15.55-22.86,2.61,2.61,0,0,0-1-3.44.35.35,0,0,1,0-.08,30.16,30.16,0,0,0,2.58-6.59,2,2,0,0,0,1.64-1.77A132.08,132.08,0,0,0,223.79,193.4ZM139.86,301.8c.2-.21.39-.43.58-.65,0,.1,0,.2,0,.3Zm27-174.7c0-.07.06-.13.09-.21l0,0Zm13.86,35.39v.06a1.73,1.73,0,0,0-.32.11l-.15-.56Z"/><path class="cls-2" d="M171.08,164.5A12.75,12.75,0,0,0,168.4,170,2.5,2.5,0,0,0,173,171.9c1.21-1.77,2.59-3.52,2.55-5.78-.05-3.21-5.05-3.22-5,0,0,1-1.26,2.36-1.87,3.26l4.57,1.92a9.76,9.76,0,0,1,2.17-4.27,2.51,2.51,0,0,0-.89-3.42,2.55,2.55,0,0,0-3.42.89Z"/><path class="cls-2" d="M173.08,149.18v1a.63.63,0,0,0,1.25,0v-1a.63.63,0,0,0-1.25,0Z"/><path class="cls-4" d="M146.34,219.39c3.21,0,3.22-5,0-5s-3.23,5,0,5Z"/><path d="M199.34,219.62a1.86,1.86,0,0,0-.06-.43.15.15,0,0,0,0-.07c-.44-2.64-2.21-5.88-5.31-5.87a5.64,5.64,0,0,0-3.18,1.39c-1,.67-2.59,2.3-3.92,2.45-6.15.69-4.36-6.79-4-9.53.86-5.58,4.25-19.1-4.58-20.62-9.54-1.63-8.06,14.07-9.62,19.24-3.46,11.43-17.08,2-25,5.34s-6,12.53-5.82,19.34c0,2.17,0,4.65-1.16,6.58-1.53,2.48-4.45,3-6.73,4.54-2.7,1.79-5,5-3.63,8.36s5.56,4.31,8.89,4.38c2.55.05,5.22-.61,7.74-.06,4,.87,5.08,4.82,5.91,8.28,1.86,7.87,5.67,18.55,15.82,17.71,5.37-.44,8.69-4.88,11.74-8.81,3.92-5.06,7.78-10.19,11.23-15.59C194.75,245.19,199.93,233,199.34,219.62Zm-21.68-28.83a3.21,3.21,0,0,0-.6.06.53.53,0,0,0-.39.31,2.91,2.91,0,0,0-.59,0A2,2,0,0,1,177.66,190.79ZM147.83,253l0,0,.12.07a4.54,4.54,0,0,1,.73.61s0,0,.06,0a3.59,3.59,0,0,1,.37.48A8.66,8.66,0,0,0,147.83,253Zm39.69-3.7c-4.72,8.36-10.53,17.26-17.2,24.2-5.48,5.71-12.16,3.16-15.4-3.31a23.52,23.52,0,0,1-1.75-5.36.57.57,0,0,0,0-.27A48.09,48.09,0,0,0,152,255.6a15.6,15.6,0,0,0-.22-2.07,3.52,3.52,0,0,0-1.43-2.47,5.62,5.62,0,0,0-4.15-.64,34,34,0,0,1-7.6.56.54.54,0,0,0-.32.07c-1,0-2,0-3-.08s-3.52-.11-4.23-.86c-3.32-3.54.58-4.56,2.09-5.58,1.31-.88,2.82-1.31,4.11-2.27a10.81,10.81,0,0,0,4.22-7.45c.88-6.06-3.47-18.47,5.17-20.21,6.63-1.34,13.5,3.35,20,.07,5.92-3,6.22-9.83,6.89-15.62a23.25,23.25,0,0,1,1.21-5.92h.12c4.74-.14,4.64,8.24,4.41,13.24-.57,3.09-1,6.23-.37,9.18a6.45,6.45,0,0,0,5.79,5.41,9.2,9.2,0,0,0,5.07-1c1.68-.85,5-4.17,5.87-.11C196,230.39,192.67,240.16,187.52,249.27Z"/><path class="cls-5" d="M156.56,196.87a5.16,5.16,0,0,0-4.59,7.66,4.16,4.16,0,0,0,4.76,2.08c1.91-.62,2.75-2.72,2.74-4.58,0-3.21-5-3.22-5,0,0,.17-.05.3,0,.34s-.05.18,0,0l1.57-.56c.47.16.13.3.25,0-.14.39.29-.16.06.07s.06-.07.15-.07c-.13,0-.43,0,.1.05,3.22,0,3.22-5,0-5Z"/><path class="cls-5" d="M194.21,179.83c.42,5.34.45,11.65,3.35,16.34a2.52,2.52,0,0,0,4.66-1.27c.28-3.58-1.92-6.36-2.25-9.81l-4.66,1.26a50.71,50.71,0,0,1,2,5.63,2.51,2.51,0,0,0,4.91-.67A7,7,0,0,0,201,187c-1.76-2.68-6.09-.18-4.32,2.52a1.89,1.89,0,0,1,.51,1.75l4.91-.66a61,61,0,0,0-2.47-6.82c-1-2.26-4.9-1.13-4.66,1.26.32,3.34,2.51,6.47,2.25,9.81l4.66-1.26c-2.4-3.89-2.32-9.38-2.67-13.81-.26-3.18-5.26-3.21-5,0Z"/><path class="cls-5" d="M195.06,184.06c.29,2,1.5,3.91,1.53,6,0,3.21,5,3.22,5,0,0-2.58-1.35-4.78-1.71-7.29a2.52,2.52,0,0,0-3.07-1.75,2.58,2.58,0,0,0-1.75,3.08Z"/><path class="cls-5" d="M181.59,157.23c-.18,1.29-.84,2.56-1.08,3.86a23,23,0,0,0-.34,4.54h5c-.13-2.49-.42-5.48,1.34-7.51s-.54-5.61-3-3.92a14.36,14.36,0,0,0-2.37,2c-2.23,2.32,1.31,5.86,3.54,3.53a7.93,7.93,0,0,1,1.35-1.17l-3-3.93c-2.75,3.16-3,7-2.8,11,.16,3.19,5.07,3.23,5,0-.08-3,1-5.51,1.42-8.4.18-1.35-1.28-2.49-2.5-2.5a2.56,2.56,0,0,0-2.5,2.5Z"/><path class="cls-5" d="M153.51,150.54a4.58,4.58,0,0,0-4.62,4.32,4.64,4.64,0,0,0,1,3,5,5,0,0,0,1.27,1.14,2.33,2.33,0,0,0,.53.3c.23,0-.09,0-.17-.19l1.5-3.67.86,0v4.32c2-1.39,3.89-3.28,3.92-5.85,0-3.22-5-3.22-5,0,0-.26-.12.24,0,.1-.29.5.06,0-.32.44a6.51,6.51,0,0,1-1.09,1,2.54,2.54,0,0,0,0,4.32,4.08,4.08,0,0,0,3,.45c1.66-.28,2.19-2.38,1.49-3.67a4,4,0,0,0-1.33-1.42c-.16-.11-.33-.21-.51-.31l-.21-.12c-.15-.09-.14-.08,0,0s.21.33,0,.6c-.07.09-.18.12-.25.2l-.13,0c.3-.08.33-.09.09,0,3.22,0,3.23-5,0-5Z"/><path class="cls-5" d="M132,133.66a9.24,9.24,0,0,1,6.11,1.85,2.51,2.51,0,0,0,3.42-.89,2.58,2.58,0,0,0-.9-3.43,13.43,13.43,0,0,0-8.63-2.53,2.56,2.56,0,0,0-2.5,2.5,2.52,2.52,0,0,0,2.5,2.5Z"/><path class="cls-5" d="M41.29,218.72c-.34,4.65,3.2,7.55,4.46,11.68l4.57-1.92a22.33,22.33,0,0,1-2.25-5.61c-.32-1.59-.26-3.13-1.24-4.51-1.86-2.59-6.2-.1-4.32,2.52.88,1.22.68,3.38,1.15,4.83A37.8,37.8,0,0,0,46,231c1.28,2.53,5.39.77,4.57-1.93-1.06-3.46-4.56-6.62-4.28-10.35.24-3.21-4.76-3.19-5,0Z"/><path class="cls-5" d="M89.52,286.1c3.73,1,7.73,1.39,11.37,2.59,3.06,1,4.38-3.81,1.33-4.82-3.65-1.2-7.64-1.63-11.37-2.59-3.12-.81-4.45,4-1.33,4.82Z"/><path class="cls-5" d="M140.4,268.79c-9.13-.05-19.67-.73-28.56,1.67-3.75,1-10.16,5.23-5.4,9.3s14.54,1.23,19.9-.06c4.39-1.06,16.95-3.18,18.14-8.64a2.54,2.54,0,0,0-2.41-3.17c-4.89-.05-9.61,2.07-14.32,3.24a141,141,0,0,1-16.68,3.08c-3.15.4-3.19,5.4,0,5,4.83-.6,9.63-1.36,14.39-2.41,5.31-1.17,11.19-4,16.61-3.91l-2.41-3.16c-.2.91-5.6,2.52-6.5,2.84-2.12.76-4.31,1.35-6.5,1.9-4.48,1.13-10.45,3.23-15,1.83-1.77-.54-1.32,0,.4-.59a18.09,18.09,0,0,1,3.92-.88c2.65-.34,5.34-.48,8-.63,5.48-.32,11-.44,16.46-.41,3.22,0,3.22-5,0-5Z"/><path class="cls-5" d="M117.28,293.89a43.56,43.56,0,0,0,15.7-2.73c3.09-1.14,1.82-5.25-1.33-4.82-2.93.39-20.86,2.8-15,9.94,2,2.4,5.94,1.43,8.53,1,5.65-1,11.26-2.29,16.81-3.74,3.22-.84,18.53-3.29,14.73-9.74-1.45-2.47-5.3-3-7.81-2.52-2.94.52-5.71,2.12-8.51,3.07s-5.89,1.71-8.86,2.46-2.08,4.76.66,4.91a74,74,0,0,0,21-1.84,2.53,2.53,0,0,0,1.49-3.68,8.4,8.4,0,0,0-2-2.08v4.32l1.62-.34c3.2-.18,3.22-5.19,0-5a9.91,9.91,0,0,0-4.14,1c-1.93.84-1.31,3.33,0,4.32l.25.29,1.49-3.67a69,69,0,0,1-19.7,1.66l.67,4.91a141.72,141.72,0,0,0,14.27-4.55,9.71,9.71,0,0,1,3.79-1l.77-.72a35.39,35.39,0,0,0-3.45,1.21c-2.5.79-5.05,1.46-7.59,2.13-5,1.3-10,2.47-15,3.4-.41.08-4.06.62-4.06.67,0,1,2.49,0,2.71,0,2.92-.52,5.76-1.21,8.72-1.61l-1.33-4.82a40,40,0,0,1-14.37,2.55c-3.22,0-3.22,5,0,5Z"/><path class="cls-2" d="M138.09,129c-2.51-1.18-6.29-2.35-8.23.43-2.44,3.5,1.27,5.6,4,6.78,2.47,1.05,7.26,3.29,8.88-.2C144.56,132.14,140.9,130.31,138.09,129Zm-.63,1.08c1.29.61,2.93,1.13,3.8,2.25a.86.86,0,0,0,0,.16,4.57,4.57,0,0,1,.05,1.14c-.4,1.2-2.33,1.62-3.53,1.11-.65-.28-1.28-.63-1.94-.9-1.8-.74-4.19-.84-5.32-2.64a.47.47,0,0,0-.1-.1,2.92,2.92,0,0,1,.35-.81C132.27,127.93,135.52,129.14,137.46,130.06Z"/><path class="cls-2" d="M159.27,154.24a5.38,5.38,0,0,0-5.72-4.66,5.7,5.7,0,0,0-5.32,6.13c.18,3,3.07,6.17,6.26,5.62C157.36,160.84,159.53,157,159.27,154.24Zm-5.72-3.41a5.42,5.42,0,0,1,.57,0s0,0,0,0c4,1.54,2.5,6.62.34,9a.43.43,0,0,0-.09.16C149.71,161.36,146.88,151.32,153.55,150.83Z"/><path class="cls-2" d="M160.73,196.29c-1.1-.94-2.94-1-4.4-.78h0a2.89,2.89,0,0,0-.29,0l-.32,0h0a6.21,6.21,0,0,0-5.16,5.58c-.42,3.49,1.69,6.77,5.46,6.65,4-.12,5.83-4,5.9-7.47C161.88,199,161.89,197.27,160.73,196.29Zm-5.56,10.24c-5.26-.82-4.12-8.28.19-9.59a.52.52,0,0,0,.23.08c3.31.5,4.3,6.93,2,9a.82.82,0,0,0-.16.22A4,4,0,0,1,155.17,206.53Z"/><path class="cls-2" d="M106.88,285.37c-1.27-4.06-8.58-3.43-11.94-3.58h-.06c-1.84-.2-5.13-1.23-6.85-.28a2.19,2.19,0,0,0-.7,3.12c.91,1.54,3.16,2.21,4.73,2.79a38.39,38.39,0,0,0,7.83,2C102.26,289.78,108.09,289.23,106.88,285.37ZM98,287.91a37.71,37.71,0,0,1-7.61-2.44c-.48-.23-1.47-.59-1.75-1.07-1.43-2.46,1-2,1.73-1.95,1.37.12,2.74.28,4.12.42a.48.48,0,0,0,.17.05c1,.06,2.07.07,3.16.1a.61.61,0,0,0,.37.13c2.68,0,6,2.09,4.44,5.15a.76.76,0,0,0,0,.11,2.51,2.51,0,0,1-.27,0A15.06,15.06,0,0,1,98,287.91Z"/><path class="cls-2" d="M144.65,266.43c-1.39-1-3.15-.89-4.76-.81-3.62.19-7.27.75-10.87,1.13a.93.93,0,0,0-.24,0c-7.55.32-22.88-1-26,7.67-3,8.5,10.12,9.8,15.25,9.09a83.75,83.75,0,0,0,16.34-4.18c3.62-1.29,8.93-2.78,11.06-6.27C146.72,271,146.77,268,144.65,266.43Zm-22.37,13.76a32.9,32.9,0,0,1-9.46,1.16c-1.56-.11-4.16-.45-5.42-1.5-3.19-2.66-2.67-4.67-1.18-6.13a24,24,0,0,1,11-3.16c3.94.23,7.91.65,11.72.21a.45.45,0,0,0,.2,0l.24,0a20.51,20.51,0,0,0,2.68-.54l1.93-.39c.75-.12,1.49-.28,2.22-.46a10.4,10.4,0,0,1,2.68-.36c1.94.08,4.13,2,3.33,3.94-.39.58-1.24.87-2.5,1.56C134.43,277.37,128.1,278.86,122.28,280.19Z"/><path class="cls-2" d="M141.51,281.38a39.11,39.11,0,0,1-12.59,3.84c-2.58.28-5.17.36-7.72.8-3.75.65-9.14,2.22-9.64,6.79-1,9.65,17.6,5.52,22.25,4.64,6-1.13,12.18-2.76,18-4.46,3.49-1,7.24-3.18,7.79-7.14,1.43-10.07-12.89-6.9-17.82-4.58-1.45.68-.19,2.83,1.26,2.15a22.37,22.37,0,0,1,5.82-1.93c3.79-.66,3.94-.75,5.55,3.17q3.3,3.34-.39,4.79l-2.1.92a42.25,42.25,0,0,1-4.74,1.08c-6.77,1.43-13.15,3.76-20.09,4.47-2,.21-6.79,1.3-8.67.4q-3.89-6.29.23-7.15a16.26,16.26,0,0,1,2.38-.6,56.18,56.18,0,0,1,6.21-.7,45.41,45.41,0,0,0,15.5-4.33c1.46-.68.19-2.83-1.26-2.16Z"/><path class="cls-2" d="M162.11,160.9a1.88,1.88,0,0,0,0-3.75,1.88,1.88,0,0,0,0,3.75Z"/><path class="cls-2" d="M187.25,214a1.88,1.88,0,0,0,0-3.75,1.88,1.88,0,0,0,0,3.75Z"/><path class="cls-2" d="M101.71,293.25a1.25,1.25,0,0,0,0-2.5,1.25,1.25,0,0,0,0,2.5Z"/><path class="cls-2" d="M130.49,138.79a1.25,1.25,0,0,0,0-2.5,1.25,1.25,0,0,0,0,2.5Z"/><path class="cls-2" d="M104,291.4a.63.63,0,0,0,0-1.25.63.63,0,0,0,0,1.25Z"/><path class="cls-2" d="M184.18,214.25a.63.63,0,0,0,0-1.25.63.63,0,0,0,0,1.25Z"/><path class="cls-2" d="M158.73,161.31a.63.63,0,0,0,0-1.25.63.63,0,0,0,0,1.25Z"/><g class="cls-6"><path class="cls-7" d="M95.57,216c5.35.34,7.88,7.34,6.14,11.62-1.53,3.77-7.06,8-11.37,5.86l-1.26,4.66A13.85,13.85,0,0,0,103.56,230c3.34-7.68-1.77-11.88-6.78-17-2.26-2.3-5.79,1.23-3.54,3.53,2.89,3,7.62,6.07,6,10.9-1.47,4.37-5.89,6.14-10.16,5.67-2.46-.27-3.42,3.6-1.26,4.66,7,3.43,16-1.53,18.67-8.51,2.92-7.68-2.31-17.75-10.92-18.29-3.22-.2-3.2,4.8,0,5Z"/></g><path class="cls-5" d="M87.27,216.54c-3,4.23-4.71,9.69-1.45,14.28L88,227.05c-2.52-.09-.78-6.53,2.11-6.39,3.13.16,1.27,5.83.48,7.32-.68,1.27-1.83,3.18-3.37,1.5-.74-.81-.68-2.64-.73-3.68-.07-1.21,0-2.63,1.16-3.35q1.45-1.59,2.2,1-.92,1.31.21,1.05l1.49,1.15c-1-1.41-2.52-2.33-2.79-4a8.58,8.58,0,0,1,.5-3.65,2.51,2.51,0,0,0-4.57-1.93l-1,.9c-2.86,1.48-.33,5.8,2.52,4.31A6.52,6.52,0,0,0,89,218.6l-4.57-1.92c-1.21,4.33-1,10.6,4.39,12,4.1,1.05,9.5-3.64,5.86-7.49-3.17-3.37-8.34-.24-8.46,3.86-.16,5.43,6.13,5.78,8,1.25,1.91-4.71-.92-11.11-6.76-9.34-5.45,1.65-6.58,7-5.63,11.92s5.67,8.3,10.26,5.06c4.07-2.86,5.78-9.68,4-14.2-2.09-5.36-8.79-4.9-12.14-1-3.6,4.24-2.47,13.07,4.06,13.31,1.79.07,3.26-2.21,2.16-3.76-2.24-3.14-.5-6.43,1.44-9.23,1.85-2.64-2.48-5.14-4.31-2.52Z"/><path class="cls-8" d="M89.85,213.78A10.37,10.37,0,0,0,81,221.9a11.31,11.31,0,0,0,4.73,12,9.73,9.73,0,0,0,11.86-1.61c3.29-3.3,4.1-9,2.16-13.33a9.18,9.18,0,0,0-2.46-3.35,8.89,8.89,0,0,0-3.74-1.7,11.27,11.27,0,0,0-6.44.6c-.3.12-.17.63.12.51,3.73-1.46,8.68-1.11,11.21,2.6a12,12,0,0,1-.06,12.93,9.45,9.45,0,0,1-10.94,3.62c-4-1.5-6.57-6-6.22-10.54a10,10,0,0,1,8.63-9.31c.31,0,.31-.56,0-.53Z"/><path class="cls-2" d="M87,216.15c5.06-.38,9,2,8.89,7.44-.06,4.1-2.72,7.58-5.1,10.69-.41.54.36,1.11.86.85,7.32-3.72,12.27-22.16-.3-21.25-.55,0-.92.88-.31,1.16,7.62,3.53,5.82,12.44,1.82,18-.45.63.47,1.15,1,.76,5.6-4.38,8.62-12.65,2.37-17.93a.63.63,0,0,0-1,.76,19.45,19.45,0,0,1,1,14.41.63.63,0,0,0,1.14.48c3.31-5.77,4.28-14.21-3.14-17.13-.61-.24-1,.63-.61,1,2.38,2.42,4.51,4.83,4.49,8.43,0,.82,1.17.79,1.25,0l.36-3.69H98.44a29.31,29.31,0,0,1-4.15,13,.63.63,0,0,0,1.08.63,30.94,30.94,0,0,0,4.32-13.62c.06-.8-1.18-.79-1.25,0l-.36,3.69h1.25c0-4-2.19-6.6-4.86-9.31l-.61,1c6.65,2.62,5.22,10.39,2.4,15.3l1.15.49A20.65,20.65,0,0,0,96.32,216l-1,.75C101.13,221.67,98,229,93,232.93l1,.76c4.4-6.14,5.93-15.93-2.27-19.72l-.32,1.16c11.21-.81,5.88,15.77-.33,18.92l.85.86c3.15-4.12,6.46-9,4.83-14.46-1.41-4.65-5.21-5.89-9.7-5.55-.8.06-.8,1.31,0,1.25Z"/><path class="cls-2" d="M103.33,233.06a1.88,1.88,0,0,0,0-3.75,1.88,1.88,0,0,0,0,3.75Z"/><path class="cls-2" d="M100.05,233.75a.63.63,0,0,0,0-1.25.63.63,0,0,0,0,1.25Z"/><path class="cls-2" d="M102.72,228.62a.63.63,0,0,0,0-1.25.63.63,0,0,0,0,1.25Z"/><path class="cls-2" d="M104.56,229a.63.63,0,0,0,0-1.25.63.63,0,0,0,0,1.25Z"/><path class="cls-7" d="M54.42,244.52c4.87,2.06,6,8,9.72,11.46,1.61,1.49,3.55,2.58,5.27,3.94.9.72,3.51,2.77,3.32,4.15l-3.14,3.69A8.63,8.63,0,0,1,65,265.65c-2.6-1.9-5.09,2.44-2.52,4.32,3.49,2.55,8.21,4,12.1,1.33,3.31-2.26,4-6.25,2.53-9.81-2.07-4.93-7.22-6.34-10.5-10.14s-4.42-8.95-9.63-11.15c-2.93-1.24-5.48,3.06-2.52,4.32Z"/><path class="cls-2" d="M67.25,253.52a1.25,1.25,0,0,0,0-2.5,1.25,1.25,0,0,0,0,2.5Z"/><path class="cls-2" d="M67.22,255.5a.63.63,0,0,0,0-1.25.63.63,0,0,0,0,1.25Z"/><path class="cls-5" d="M53.45,245.79c-.85,6.31,2.7,11.88,5.7,17.21,2,3.58,6.87,7.67,11.42,6.08s3.18-6.9-.08-8.92c-2.62-1.62-5.1-2.41-7.22-4.88a24.59,24.59,0,0,1-4.71-9.62L54,247.59c3.23,5.63,5.85,12.29,11.83,15.5,2.84,1.52,5.37-2.8,2.53-4.32-5-2.66-7.35-9-10-13.7A2.51,2.51,0,0,0,53.74,247c1.7,6.18,4.91,12.23,10.54,15.65.89.54,3.32,1.39,3.6,1.66-.86-.83-2.21-.83-3.16-1.81a9.52,9.52,0,0,1-1.26-2c-2.13-3.74-5.79-8.86-5.19-13.35.43-3.15-4.39-4.51-4.82-1.33Z"/><path class="cls-2" d="M71.72,259.94l-.14-.16a.52.52,0,0,0-.37-.19c-1-.65-2-1.24-2.77-1.74a.85.85,0,0,0-.16-.17,18.43,18.43,0,0,1-6.75-8.63,20,20,0,0,0-1.91-4.28c-1.55-2.14-4.17-3.76-6.77-2.31-6.43,3.57-.29,14.5,2.59,18.35,3.52,4.69,11.83,12.41,18.2,8.32C78.75,265.86,75.38,262.47,71.72,259.94ZM53,247s0,0,0,0l0,0Zm1.87-1L55,246l-.09.21Zm8.35,20.47a28.48,28.48,0,0,1-2.89-2.23.49.49,0,0,0-.1-.31c-3.87-5.59-7.47-12.6-3.28-19l.84-.43c1.63,1,2.31,4.63,3.11,6.4A18.47,18.47,0,0,0,66.57,258a.6.6,0,0,0,.25.33c1.14.76,2.64,1.48,3.86,2.34l0,0a4.81,4.81,0,0,1,1.53,4c-.23,1.81-1.3,3.95-3.36,4.17h0a6,6,0,0,1-1.44-.54A13.51,13.51,0,0,1,63.24,266.47Z"/><g class="cls-6"><path class="cls-9" d="M78.48,146.39c3.47-2.3,8.49-2.21,10.57,2,2.19,4.38-1.1,7.87-4.56,10.14-2.82,1.85-5.89,3.42-8.87,5-1.25.67-2.67,1.77-4.06,2-4.62.91-5.89-4-2.27-6.18,2.47-1.5,5.61-.83,8.16-2.44a10,10,0,0,0,3.78-4.46c.37-.86,1.17-5.35.55-4.83q4.92,2.33,2.39,5.26a6.48,6.48,0,0,1-1.82,2.45,20.53,20.53,0,0,1-4.46,3.53c-2.82,1.65-5,1.68-8.16.68a9.37,9.37,0,0,0-2-.79,3,3,0,0,0-3.26,1.59c-1.81,3,1,6.35,3.91,7.16,3.87,1.07,8.18-1.9,8.79-5.86.7-4.56-4.09-4.92-7.47-4.64-3.17.26-3.26,4.94,0,5,8.89.16,14.6-6.43,17.23-14.33H82.05c1.75,5.15-4.74,10.24-8.49,12.5-2.75,1.66-.24,6,2.52,4.32,5.81-3.51,13.34-10.64,10.8-18.15a2.53,2.53,0,0,0-4.83,0c-1.91,5.78-5.83,10.78-12.4,10.66v5a8.29,8.29,0,0,1,3.67.2l-1.23-2.16L69,162.48l-2.16,1.24c1,.05,2.8,1.28,3.93,1.5a12,12,0,0,0,4.55,0c3.63-.7,6.74-2.87,9.45-5.29C89,156.12,93,148.82,87.35,144.3c-3.85-3.09-9.75-2.07-10.42,3-.52,3.94-1.25,5.62-5.62,6.3a14.11,14.11,0,0,0-4,1A9.8,9.8,0,0,0,62,160.82c-1.3,5.27,3,10.78,8.51,10.21,3.74-.39,7.46-3.1,10.66-4.87,3.42-1.9,7.21-3.72,10-6.51,10.23-10.21-3.54-25.32-15.23-17.57-2.67,1.77-.17,6.1,2.52,4.31Z"/></g><path class="cls-2" d="M84.26,151.42c3.22,0,3.23-5,0-5s-3.22,5,0,5Z"/><path class="cls-5" d="M71.08,156.54c3.22,0,3.22-5,0-5s-3.22,5,0,5Z"/><path class="cls-2" d="M80.35,149a.63.63,0,0,0,0-1.25.63.63,0,0,0,0,1.25Z"/><path class="cls-5" d="M72.85,146.24q-2.46,3-4.73,6.21l4.66,1.26a2.82,2.82,0,0,1,2.48-2.26L72.09,149a1.39,1.39,0,0,1-1.28,1.43,2.53,2.53,0,0,0-1.75,3.08,2.56,2.56,0,0,0,3.08,1.75,6.4,6.4,0,0,0,5-6.26,2.54,2.54,0,0,0-3.16-2.41,7.71,7.71,0,0,0-6.15,7.08,2.52,2.52,0,0,0,1.84,2.41A2.6,2.6,0,0,0,72.44,155q1.89-2.66,4-5.19a2.58,2.58,0,0,0,0-3.54,2.53,2.53,0,0,0-3.54,0Z"/><path class="cls-2" d="M76.58,152.88c2.2-3.52,2.72-7.87-1.49-8.24-2.9.08-6,3.22-7.15,5.69s-1.22,6.72,2.31,7c2.18.2,4.65-1.86,6.25-4.38A.5.5,0,0,0,76.58,152.88Zm-6.92,2.79c-3.07-1.73-.4-6.32,2.57-8.54h.07c1.6-.46,3.25,0,3.25,1.92,0,1.07-.07,2.14-.14,3.21l0,.06C74.09,154.11,72.1,157,69.66,155.67Z"/><g class="cls-6"><path class="cls-9" d="M177.29,183.39a10,10,0,0,0-8.83,6.17c-2.25,4.95.18,14.38-4.86,17.6-4.76,3.05-12-2.09-17.39-1-4.54.91-7.66,4.62-9,8.88-1.78,5.47-1,11.18-1.16,16.8-.19,7.06-7.84,8.14-11.47,13.23-5.3,7.44.78,15.27,9.28,13.08,3.11-.8,1.79-5.63-1.33-4.82Q128.76,255,127.6,250a7.71,7.71,0,0,1,2.42-3.59c1.63-1.57,3.74-2.62,5.56-3.94,2.52-1.83,4.86-3.94,5.4-7.14,1.17-6.85-3.7-23.76,7.53-24.37,6.66-.37,13.25,4.84,19.2-.66,2.37-2.2,3.36-5.47,3.81-8.56.59-4.15-.46-13,5.77-13.32,3.2-.18,3.22-5.18,0-5Z"/><path class="cls-9" d="M124.39,251.94a14.86,14.86,0,0,0,13.54,4.47l-1.33-4.82c-1.58.36-3.09.77-4.63,1.27-2.62.85-2.24,4.91.67,4.91a24.85,24.85,0,0,0,4.72-.47c2.77-.54,2.14-5-.66-4.92a16,16,0,0,0-5.68,1.21c-2.9,1.21-1.91,5.53,1.33,4.82,2.76-.6,5.82-1.78,8.52-.69,3.06,1.24,4.62,4.77,6.1,7.58s5.82.32,4.32-2.52c-1.88-3.58-4.34-8.23-8.27-9.92s-8.2-.1-12,.73l1.33,4.82a11.47,11.47,0,0,1,4.35-1l-.67-4.91a11.4,11.4,0,0,1-3.39.3l.66,4.91c1.54-.5,3-.91,4.63-1.27,3.21-.71,1.76-5.26-1.33-4.82a9.71,9.71,0,0,1-8.67-3.19c-2.23-2.33-5.76,1.21-3.54,3.54Z"/></g><path class="cls-10" d="M196.25,220c-.6-2.42-3.68-4.48-6.15-3.5-4.8,1.93-10.27,3.31-11-3.46-.52-4.93,1.08-10.23,2.4-14.93,1.75-6.21-7.9-8.85-9.64-2.66-1.47,5.23-3.12,11.34-2.86,17.1a5.29,5.29,0,0,0-3.21.36,7,7,0,0,0-2.18,1.53c-2.59,1.19-5.87-.07-8.5-.66-3.46-.77-6.91-1.2-10.16.58-7.17,3.91-4.93,13.66-4.62,20.29a5.47,5.47,0,0,0,.51,2l-.2.12c-3.21,2-6.29,4.25-9.31,6.56-4.25,3.25-2.05,10.67,3.85,9.14,4-1,8.53-2.37,11.49,1.42,1.84,2.36,2.53,5.44,3.31,8.26,1.6,5.76,3.2,14,10.37,14.66a11.54,11.54,0,0,0,1.31,0,4.7,4.7,0,0,0,4.58-.09,20.31,20.31,0,0,0,5.58-4.85,143.82,143.82,0,0,0,11.33-11.16c2.29-2.59,5-6.71,4.65-10.43l.23-.28a5.1,5.1,0,0,0,1.25-4.19c.12-.26.25-.51.38-.76l.07-.11c2.12-1.85,3.39-4.62,4.34-7.3a4.68,4.68,0,0,0,.14-3C196.16,229.91,197.46,224.93,196.25,220Zm-35.06,4.91-.19,0-.15-.14h.32A.52.52,0,0,0,161.19,224.93Z"/><path class="cls-11" d="M197,226.81a2.4,2.4,0,0,0-.87-1.79,40,40,0,0,0,.74-5.5c.15-2.26-2.78-3.17-4.27-1.77-1.77,1.67-3.62,2.92-5.5,3.11-1.45-.79-3-1.49-4.52-2.23a12.45,12.45,0,0,1-1.37-2,2.31,2.31,0,0,0-.9-1,29.28,29.28,0,0,1-.49-4.14c-.4-5.17-.48-10.38-.72-15.56a2.46,2.46,0,0,0-2.34-2.4c-1.29-1.87-5-.5-4.44,2.27l2,10.48a2.49,2.49,0,0,0,.26.71c.09,1.79.18,3.59.31,5.37.24,3.58.79,7.13,3.28,9.89a11.43,11.43,0,0,0,3.59,2.7,10.4,10.4,0,0,1,3.1,5.7c.64,5.67-3.25,12.27-5.84,17.1s-5.71,9.15-11.18,10.6a26.58,26.58,0,0,1-9.16.54c-3.76-.47-5.19-2.49-6.62-5.77a2,2,0,0,0-2.86-1.06,2.66,2.66,0,0,0-2.15,3.06c1,5.75,3.57,10.82,6.58,15.76,2.31,3.8,4.61,8,9.68,7.69,4.43-.27,7.3-3.52,9.76-6.86.19-.26.37-.52.56-.77a25.33,25.33,0,0,0,2.26-2.74,2.08,2.08,0,0,0,.73-.58l.39-.5h0c.59-.75,1.15-1.51,1.68-2.29l.87-1.18a2.08,2.08,0,0,0,.3-.62q.49-.79,1-1.59a2.16,2.16,0,0,0,.2-.36c.25-.43.49-.87.72-1.3l4-5.92a2.15,2.15,0,0,0,.35-1.92,87.84,87.84,0,0,0,6.54-12.3c.11-.15.21-.3.33-.45a2,2,0,0,0,.44-1.72c.16-.53.3-1.05.43-1.58a2.18,2.18,0,0,0,2.48-1.78A26.65,26.65,0,0,0,197,226.81Z"/><path d="M199.34,219.62a1.86,1.86,0,0,0-.06-.43.15.15,0,0,0,0-.07c-.44-2.64-2.21-5.88-5.31-5.87a5.64,5.64,0,0,0-3.18,1.39c-1,.67-2.59,2.3-3.92,2.45-6.15.69-4.36-6.79-4-9.53.86-5.58,4.25-19.1-4.58-20.62-9.54-1.63-8.06,14.07-9.62,19.24-3.46,11.43-17.08,2-25,5.34s-6,12.53-5.82,19.34c0,2.17,0,4.65-1.16,6.58-1.53,2.48-4.45,3-6.73,4.54-2.7,1.79-5,5-3.63,8.36s5.56,4.31,8.89,4.38c2.55.05,5.22-.61,7.74-.06,4,.87,5.08,4.82,5.91,8.28,1.86,7.87,5.67,18.55,15.82,17.71,5.37-.44,8.69-4.88,11.74-8.81,3.92-5.06,7.78-10.19,11.23-15.59C194.75,245.19,199.93,233,199.34,219.62Zm-21.68-28.83a3.21,3.21,0,0,0-.6.06.53.53,0,0,0-.39.31,2.91,2.91,0,0,0-.59,0A2,2,0,0,1,177.66,190.79ZM147.83,253l0,0,.12.07a4.54,4.54,0,0,1,.73.61s0,0,.06,0a3.59,3.59,0,0,1,.37.48A8.66,8.66,0,0,0,147.83,253Zm39.69-3.7c-4.72,8.36-10.53,17.26-17.2,24.2-5.48,5.71-12.16,3.16-15.4-3.31a23.52,23.52,0,0,1-1.75-5.36.57.57,0,0,0,0-.27A48.09,48.09,0,0,0,152,255.6a15.6,15.6,0,0,0-.22-2.07,3.52,3.52,0,0,0-1.43-2.47,5.62,5.62,0,0,0-4.15-.64,34,34,0,0,1-7.6.56.54.54,0,0,0-.32.07c-1,0-2,0-3-.08s-3.52-.11-4.23-.86c-3.32-3.54.58-4.56,2.09-5.58,1.31-.88,2.82-1.31,4.11-2.27a10.81,10.81,0,0,0,4.22-7.45c.88-6.06-3.47-18.47,5.17-20.21,6.63-1.34,13.5,3.35,20,.07,5.92-3,6.22-9.83,6.89-15.62a23.25,23.25,0,0,1,1.21-5.92h.12c4.74-.14,4.64,8.24,4.41,13.24-.57,3.09-1,6.23-.37,9.18a6.45,6.45,0,0,0,5.79,5.41,9.2,9.2,0,0,0,5.07-1c1.68-.85,5-4.17,5.87-.11C196,230.39,192.67,240.16,187.52,249.27Z"/><path class="cls-2" d="M141.44,258.79a1.25,1.25,0,0,0,0-2.5,1.25,1.25,0,0,0,0,2.5Z"/><path class="cls-2" d="M138.83,256.93a.63.63,0,0,0,0-1.25.63.63,0,0,0,0,1.25Z"/><g class="cls-6"><path class="cls-9" d="M43.86,214.66c6.52,2.63,7.09,14.16,6,19.76-.64,3.14,4.18,4.49,4.82,1.33,1.77-8.77,0-22.1-9.45-25.91-3-1.2-4.28,3.63-1.33,4.82Z"/></g><path class="cls-2" d="M52.39,229.64a38.25,38.25,0,0,0-1.19-4.59c-.16-.53-.31-1.07-.47-1.61a16.56,16.56,0,0,0-2.91-7.38h0a3.71,3.71,0,0,0-3.88-1.92c-4.38.59-3.62,6.45-2.59,9.76a.66.66,0,0,0,.08.32l.06.1c.09.27.19.52.28.74,1.26,3.08,4.12,10.85,8.7,9.7C53.18,234.06,53.13,231.9,52.39,229.64ZM41.83,218.1A11.73,11.73,0,0,1,44,216.89c2.82.76,3.27,5.67,3.86,7.9.11.43.87,2.36,1.3,4.06,0,0,0,0,0,.07.14,1,.11,4-1.93,2.49a3.91,3.91,0,0,1-.71-1.07c-.62-1-1.2-2-1.8-3-.74-1.24-1.47-2.48-2.19-3.73C42,222,41.16,219.34,41.83,218.1Z"/><g class="cls-6"><path class="cls-9" d="M155.3,130.76c5.33-4,12.18,1.61,15.41,5.92a18,18,0,0,1,2.38,17.7c-1.15,3,3.69,4.31,4.83,1.33A23.14,23.14,0,0,0,173,131.64c-4.9-5.34-13.55-10.28-20.26-5.2-2.53,1.92,0,6.26,2.53,4.32Z"/></g><g class="cls-6"><path class="cls-9" d="M184.21,154.36c4.21,2.41,4.28,11.91,0,14.12-2.86,1.48-.33,5.8,2.53,4.32,7.7-4,7.31-18.57,0-22.75-2.8-1.6-5.32,2.71-2.52,4.31Z"/></g><g class="cls-6"><path class="cls-9" d="M196.47,175.8c2.77-.29,5.46,9.16,5.88,10.77.84,3.18,3.23,13.44-2.69,13.84-3.19.21-3.21,5.21,0,5,8.51-.57,9.41-9.41,8.33-16.24-.83-5.32-4.18-19.14-11.52-18.37-3.16.33-3.2,5.34,0,5Z"/></g><path class="cls-2" d="M200.89,179.16c-1-3.33-5.09-6-7.75-2.53-1.79,2.34-.87,5.42-.16,8,1.14,4.06.35,8.89,2.05,12.74,1.82,4.13,6.44,5.17,8.64.84C206.72,192.16,202.55,184.91,200.89,179.16Zm-2.41.66c.27.94,1.48,4.12,2.5,7.53a.5.5,0,0,0,0,.21c.33,2.62.65,5.43-.35,7.84a1.59,1.59,0,0,1-2.28.51h0l0,0a8.94,8.94,0,0,1-1.6-3.9,5.43,5.43,0,0,1,0-.57c-.08-1.13,0-2.24-.21-3.38a19.18,19.18,0,0,0-.61-2.57,1,1,0,0,0,0-.17c0-1.07-.2-2.13-.2-3.21s.09-1.93.18-2.9Q197.49,176.57,198.48,179.82Z"/><path class="cls-2" d="M185.81,153h-.1l-.07,0c-4.13-.19-5.93,2.58-6.26,6.3-.28,3-1.31,11.3,3.54,11.69,4.11.33,5.73-6.14,6.35-9C190.1,158.09,190.26,154.24,185.81,153Zm1.31,3.42a3.45,3.45,0,0,1,.49,1.31A7.44,7.44,0,0,0,187.12,156.44Zm-6.56,3.94c.17-2.7.62-5.3,3.24-6a8.58,8.58,0,0,1-3.05,12.82h0a19.67,19.67,0,0,1-.24-3.25C180.46,162.79,180.49,161.57,180.56,160.38Z"/><path class="cls-5" d="M158.74,132.82c-1.37-.6-3,.82-3,2.31a4.69,4.69,0,0,0,2.22,3.69c1.21.88,2.62,1.45,3.83,2.33a9,9,0,0,1,2.67,3.07c-2-1.25-4-2.57-5.86-4a38.38,38.38,0,0,1,7.86,7.83c.81,1.08,2,2.36,3.24,1.88a2.05,2.05,0,0,0,1.13-2.2,6,6,0,0,0-1.06-2.43l-3-4.74a25.5,25.5,0,0,0-3.84-5.08,6.84,6.84,0,0,0-3.45-1.88c-.18.64.36,1.23.86,1.67l3.73,3.28a8.57,8.57,0,0,1-4.09-3.05,17.93,17.93,0,0,1,6.89,5.07,19.48,19.48,0,0,1-5.23-4.93,2.9,2.9,0,0,1,1.82.95c-1.41.14-2.29-1.42-3.28-2.45a5.46,5.46,0,0,0-2.68-1.52,2.24,2.24,0,0,0-2.49.72,2.14,2.14,0,0,0,.87,2.56c.78.6,1.76.93,2.49,1.59"/><path class="cls-5" d="M159.41,130.4c-3.62-.56-6.76,2.07-6,5.94.9,4.82,6.64,5.39,8.92,9.14l3.42-3.42c-2-1.26-4-2.58-5.86-4-2.64-1.9-5,2.41-2.52,4.32a37.62,37.62,0,0,1,5.24,4.85c1.31,1.47,2.38,3.43,4.07,4.5a4.25,4.25,0,0,0,6.62-3.11c.46-3.55-3.08-7.45-4.89-10.22-2.08-3.18-4.39-6.19-8.22-7.21a2.52,2.52,0,0,0-3.07,3.07c.53,2.72,3.26,4.32,5.23,6.06l2.43-4.18a7.53,7.53,0,0,1-3-2.41l-3,3.92a18.36,18.36,0,0,1,6.38,4.68l3-3.92a18.68,18.68,0,0,1-4.33-4L161,138.09l.72.31,1.76-4.27c-.51-.07-1.83-2-2.3-2.39a7.74,7.74,0,0,0-2-1.16,5.46,5.46,0,0,0-5.2.35c-4.37,3.23.61,6.94,3.16,8.76s5.13-2.46,2.53-4.32c-.47-.33-2.49-2.11-2.84-.3.16-.83,2.62,2.06,2.79,2.23a5.89,5.89,0,0,0,3.87,1.83c2.07.27,3.43-3,1.77-4.27a8.34,8.34,0,0,0-2.92-1.6c-1.93-.6-4.19,1.91-2.83,3.68a26.32,26.32,0,0,0,6.13,5.83c2.45,1.66,4.83-1.9,3-3.93a21.67,21.67,0,0,0-7.4-5.46,2.51,2.51,0,0,0-3,3.92,12.38,12.38,0,0,0,5.19,3.7c2.33,1,4.23-2.6,2.44-4.18-1-.87-3.68-2.47-3.95-3.85l-3.08,3.08c2.64.7,4.13,3.2,5.51,5.36.6.93,2.66,5.58,3.73,6,1.8.63-.31-1.68-.52-1.93-.7-.87-1.42-1.71-2.19-2.52a45.09,45.09,0,0,0-5.5-4.82l-2.52,4.32q2.86,2.07,5.86,4a2.52,2.52,0,0,0,3.42-3.42,13,13,0,0,0-3.31-3.77,23.19,23.19,0,0,0-2.17-1.36l-1-.56a4.59,4.59,0,0,1-2.07-2c3.15.48,4.5-4.33,1.33-4.83Z"/><path class="cls-2" d="M172.18,138.46c-3.24-6.24-8.42-11.82-16.18-10.52-3.37.56-6.78,3-7,6.63-.27,4.29,3.43,7.55,6.36,10.06a32.93,32.93,0,0,1,6.5,6.63c1.23,1.83,2.13,3.88,3.91,5.25,2.54,2,5.77,2.13,8.07-.26C178.62,151.3,174.63,143.55,172.18,138.46Zm-7.54,10.17a25.47,25.47,0,0,0-4.15-4.53,70.9,70.9,0,0,1-5.52-4.87c-1.51-1.66-1.91-5.17-.23-7,1-1.09,4.51-.64,5.66-.35,4.4,1.07,6.57,4.67,8.54,8.46.6,1.26,1.59,3.16,2.37,5.11.11,1.49.7,3.11.05,4.45-1,2.06-3.41,2.16-5.12,1a.73.73,0,0,0-.26-.09C165.65,150.32,165.35,149.67,164.64,148.63Z"/><path class="cls-2" d="M41.41,132.59a.63.63,0,0,0,0-1.25.63.63,0,0,0,0,1.25Z"/><text class="cls-12" transform="matrix(0.72, -0.69, 0.69, 0.72, 36.92, 127.51)">M</text><text class="cls-12" transform="matrix(0.83, -0.55, 0.55, 0.83, 56.46, 109.23)">o</text><text class="cls-12" transform="translate(70.56 99.83) rotate(-25.47)">o</text><text class="cls-12" transform="translate(85.41 91.93) rotate(-14.3)">n</text><text class="cls-12" transform="translate(114.92 84.87) rotate(-2.46)">g</text><text class="cls-12" transform="translate(134.99 83.6) rotate(8.63)">r</text><text class="cls-12" transform="translate(161.64 87.98) rotate(19.39)">a</text><text class="cls-12" transform="translate(179.03 93.63) rotate(29.99)">p</text><text class="cls-12" transform="matrix(0.73, 0.68, -0.68, 0.73, 201.79, 106.53)">h</text><text class="cls-12" transform="matrix(0.59, 0.81, -0.81, 0.59, 222.37, 126.02)">y</text><path class="cls-13" d="M36,127.66c-35,36.14-44.91,89.66-25.2,135,20.62,47.47,68,72.91,113.05,73.53,66.54.91,104.2-52.58,108.16-58.42,42.74-63,10.47-133.8,8.88-137.14"/><g class="cls-14"><path class="cls-9" d="M106.31,128.56a4.42,4.42,0,0,0,.13,6.3,8.17,8.17,0,0,0,6.65,1.67,5.43,5.43,0,0,0,4.74-3.81c.6-2.46-1.16-4.62-3.26-5.63s-4.74-1.44-6.81-.06a4.6,4.6,0,0,0-1.55,6.12,6.19,6.19,0,0,0,5.58,2.46,3.3,3.3,0,0,0,2.47-5.32c-1.51-2.06-5.31-2.86-6.89-.44a3.21,3.21,0,0,0,3.35,4.91,2.54,2.54,0,0,0,1.75-3.08,2.58,2.58,0,0,0-3.08-1.75l-.24,0,1.93.25.14.12.64,1.1-.17.94-.9.89a.62.62,0,0,1-.48.12l-.34-1.26h0l.65-1.11-.26.22,1.1-.64c-.15,0-.76-.16-.88-.11a.6.6,0,0,1-.21-.08c.27.3.32.57.14.82-.11-.1,1.1,0,1,0,.35.08.93.51,1.24.54a1.24,1.24,0,0,1,.26.19.7.7,0,0,1,.08-.6,6.55,6.55,0,0,0-.69.25,10.16,10.16,0,0,1-1.92-.13,1.2,1.2,0,0,1-.48-.17,1,1,0,0,1-.13.77c2.25-2.29-1.28-5.83-3.54-3.53Z"/></g><path class="cls-9" d="M101.64,138.11l.33.1a2.52,2.52,0,0,0,3.07-1.75,3,3,0,0,0-2.43-3.73,2.63,2.63,0,0,0-2.71,1.2,3.53,3.53,0,0,0-.33,2.53,2.51,2.51,0,0,0,3.08,1.74,2.57,2.57,0,0,0,1.75-3.07l-.18,1.32-1.5,1.15-2.5-2.46,3.08-1.75-.33-.11A2.52,2.52,0,0,0,99.9,135a2.56,2.56,0,0,0,1.74,3.08Z"/><path class="cls-9" d="M49,185.72c-2,5.8,3,12.32,9.3,10.59,6-1.64,7.8-9.7,2.15-13-2.4-1.39-6.14-2-8.72-.81a6,6,0,0,0-3.07,7.13c1.71,5.69,11.64,7.7,13.24.89,1.48-6.29-6.54-9.65-10.8-5.48-1.91,1.87-3.28,5.59-1.19,7.82s5.42,1.87,7.7.35,4.25-4.61,3.25-7.45a4.11,4.11,0,0,0-6.9-1.52c-1.74,1.85-2.07,6.12.19,7.7,2.52,1.77,5.69-.55,5.94-3.29.28-3.15-3.16-6-6-3.93a3.54,3.54,0,0,0,2.12,6.42,4.19,4.19,0,0,0,3-7c-2.85-3-6.74-.56-7.21,3-.18,1.35,1.28,2.48,2.5,2.5a2.57,2.57,0,0,0,2.5-2.5c.54,2.07.74,2.43.62,1.08-1-1-1.58-1-1.82,0a11.11,11.11,0,0,1-1.68,1.28,1,1,0,0,1-.69,0c.41.48.64.42.7-.16.54-.41.63-1,1.44-1.13s2.13.82,1.24,1.68-3.72-.86-3.41-2.14c.45-1.8,7.72-.26,5,2.94a2.72,2.72,0,0,1-3.66.48c-1.39-1-1.43-2.57-.92-4,1.06-3-3.76-4.35-4.82-1.33Z"/><path class="cls-9" d="M43.74,156.82c.22.41-.13-.31,0,0s0-.45,0-.12.19-.44,0,0l.13-.26c-.12.19-.12.21,0,.05s-.17.13.09-.08.15-.12,0,0l.28-.12c-.3.12,0,0,.16,0-.5,0,.48.13,0,0l1.5,3.67L47,157.7a2.5,2.5,0,0,0-4.32-2.53l-1.19,2.19A2.54,2.54,0,0,0,43,161a4.42,4.42,0,0,0,4.78-1.57,4.77,4.77,0,0,0,.29-5.18,2.52,2.52,0,0,0-3.42-.89,2.54,2.54,0,0,0-.89,3.42Z"/><path class="cls-2" d="M114.61,111.9c-42.84,3.9-80.13,34.4-90.74,76.42-11,43.61,9.42,90.8,48.52,112.92,38.46,21.75,89.41,14.46,121.7-15.19,33.84-31.07,42.13-84.65,22.22-125.52-5.91-12.14-14.29-23.35-25.15-31.46-11.2-8.36-24.91-13.39-38.53-16.08-22.1-4.37-45.07-1.89-66.18,5.7-2.25.82-1.28,4.44,1,3.62,38.76-14,90.14-10.48,116.45,24.94s25.46,87.75-.68,123.08c-25.32,34.21-73.6,48.4-113.65,34.59-41.39-14.26-68.38-57.08-64.65-100.46,4-47.06,43-84.56,89.69-88.81,2.38-.22,2.4-4,0-3.75Z"/><path class="cls-15" d="M138,162.7a23.36,23.36,0,0,0-6.86-12.07,15.85,15.85,0,0,0-6.82-3.75,13.88,13.88,0,0,0-9.6-.42,2.82,2.82,0,0,0-.62.2,14.54,14.54,0,0,0-2.62,1.21c-4,1.67-6.77,5.34-10,9.12-6,7.1-15.34,10.31-21,17.76-9.89,12.9-.41,28.73,14.43,31.07,15.53,2.46,31.33-6.86,39.23-19.93a40.89,40.89,0,0,0,3.43-7.06C140.52,173.6,140.25,167.87,138,162.7Zm-20.39,10.16v-.13a24.86,24.86,0,0,0,1.7-3.56A18.8,18.8,0,0,1,117.57,172.86Z"/></g></g></svg>